<svg data-v-423bf9ae="" xmlns="http://www.w3.org/2000/svg" viewBox="0 0 390 90" class="iconLeft"><!----><!----><!----><g data-v-423bf9ae="" id="62b93c70-43de-4c0e-abdc-309ee5802a40" fill="#272EF1" transform="matrix(5.612721920013428,0,0,5.612721920013428,101.74927520751953,-1.5575287342071533)"><path d="M5.29 3.75L5.29 3.75Q7.20 3.75 8.29 4.66L8.29 4.66L8.29 4.66Q9.38 5.57 9.38 7.17L9.38 7.17L9.38 7.17Q9.38 8.76 8.29 9.67L8.29 9.67L8.29 9.67Q7.20 10.58 5.29 10.58L5.29 10.58L2.87 10.58L2.87 13.55L1.47 13.55L1.47 3.75L5.29 3.75ZM5.25 9.37L5.25 9.37Q6.58 9.37 7.28 8.80L7.28 8.80L7.28 8.80Q7.98 8.23 7.98 7.17L7.98 7.17L7.98 7.17Q7.98 6.10 7.28 5.54L7.28 5.54L7.28 5.54Q6.58 4.97 5.25 4.97L5.25 4.97L2.87 4.97L2.87 9.37L5.25 9.37ZM12.67 7.38L12.67 7.38Q13.02 6.73 13.71 6.40L13.71 6.40L13.71 6.40Q14.39 6.06 15.37 6.06L15.37 6.06L15.37 7.36L15.37 7.36Q15.26 7.35 15.06 7.35L15.06 7.35L15.06 7.35Q13.97 7.35 13.35 8.00L13.35 8.00L13.35 8.00Q12.73 8.65 12.73 9.86L12.73 9.86L12.73 13.55L11.38 13.55L11.38 6.13L12.67 6.13L12.67 7.38ZM20.30 13.64L20.30 13.64Q19.19 13.64 18.31 13.15L18.31 13.15L18.31 13.15Q17.43 12.66 16.93 11.79L16.93 11.79L16.93 11.79Q16.44 10.93 16.44 9.84L16.44 9.84L16.44 9.84Q16.44 8.75 16.93 7.89L16.93 7.89L16.93 7.89Q17.43 7.03 18.31 6.54L18.31 6.54L18.31 6.54Q19.19 6.06 20.30 6.06L20.30 6.06L20.30 6.06Q21.41 6.06 22.28 6.54L22.28 6.54L22.28 6.54Q23.16 7.03 23.65 7.89L23.65 7.89L23.65 7.89Q24.15 8.75 24.15 9.84L24.15 9.84L24.15 9.84Q24.15 10.93 23.65 11.79L23.65 11.79L23.65 11.79Q23.16 12.66 22.28 13.15L22.28 13.15L22.28 13.15Q21.41 13.64 20.30 13.64L20.30 13.64ZM20.30 12.46L20.30 12.46Q21.01 12.46 21.58 12.13L21.58 12.13L21.58 12.13Q22.15 11.80 22.47 11.21L22.47 11.21L22.47 11.21Q22.79 10.61 22.79 9.84L22.79 9.84L22.79 9.84Q22.79 9.07 22.47 8.48L22.47 8.48L22.47 8.48Q22.15 7.88 21.58 7.56L21.58 7.56L21.58 7.56Q21.01 7.24 20.30 7.24L20.30 7.24L20.30 7.24Q19.59 7.24 19.02 7.56L19.02 7.56L19.02 7.56Q18.45 7.88 18.12 8.48L18.12 8.48L18.12 8.48Q17.79 9.07 17.79 9.84L17.79 9.84L17.79 9.84Q17.79 10.61 18.12 11.21L18.12 11.21L18.12 11.21Q18.45 11.80 19.02 12.13L19.02 12.13L19.02 12.13Q19.59 12.46 20.30 12.46L20.30 12.46ZM28.73 4.19L28.73 4.19Q27.52 4.19 27.52 5.49L27.52 5.49L27.52 6.13L29.68 6.13L29.68 7.24L27.55 7.24L27.55 13.55L26.21 13.55L26.21 7.24L24.95 7.24L24.95 6.13L26.21 6.13L26.21 5.47L26.21 5.47Q26.21 4.37 26.85 3.72L26.85 3.72L26.85 3.72Q27.50 3.08 28.66 3.08L28.66 3.08L28.66 3.08Q29.11 3.08 29.50 3.19L29.50 3.19L29.50 3.19Q29.89 3.30 30.17 3.51L30.17 3.51L29.76 4.54L29.76 4.54Q29.30 4.19 28.73 4.19L28.73 4.19ZM30.95 13.55L30.95 6.13L32.30 6.13L32.30 13.55L30.95 13.55ZM31.63 4.70L31.63 4.70Q31.23 4.70 30.98 4.45L30.98 4.45L30.98 4.45Q30.72 4.20 30.72 3.84L30.72 3.84L30.72 3.84Q30.72 3.47 30.98 3.21L30.98 3.21L30.98 3.21Q31.23 2.95 31.63 2.95L31.63 2.95L31.63 2.95Q32.02 2.95 32.28 3.20L32.28 3.20L32.28 3.20Q32.54 3.44 32.54 3.81L32.54 3.81L32.54 3.81Q32.54 4.19 32.28 4.45L32.28 4.45L32.28 4.45Q32.02 4.70 31.63 4.70L31.63 4.70ZM34.86 13.55L34.86 3.16L36.20 3.16L36.20 13.55L34.86 13.55ZM45.47 9.88L45.47 9.88Q45.47 10.04 45.44 10.29L45.44 10.29L39.42 10.29L39.42 10.29Q39.55 11.27 40.28 11.87L40.28 11.87L40.28 11.87Q41.02 12.46 42.11 12.46L42.11 12.46L42.11 12.46Q43.44 12.46 44.25 11.56L44.25 11.56L45.00 12.43L45.00 12.43Q44.49 13.02 43.74 13.33L43.74 13.33L43.74 13.33Q42.99 13.64 42.07 13.64L42.07 13.64L42.07 13.64Q40.89 13.64 39.98 13.15L39.98 13.15L39.98 13.15Q39.07 12.67 38.58 11.80L38.58 11.80L38.58 11.80Q38.08 10.93 38.08 9.84L38.08 9.84L38.08 9.84Q38.08 8.76 38.56 7.90L38.56 7.90L38.56 7.90Q39.05 7.03 39.89 6.54L39.89 6.54L39.89 6.54Q40.74 6.06 41.80 6.06L41.80 6.06L41.80 6.06Q42.87 6.06 43.70 6.54L43.70 6.54L43.70 6.54Q44.53 7.03 45.00 7.90L45.00 7.90L45.00 7.90Q45.47 8.76 45.47 9.88L45.47 9.88ZM41.80 7.20L41.80 7.20Q40.84 7.20 40.19 7.78L40.19 7.78L40.19 7.78Q39.54 8.37 39.42 9.32L39.42 9.32L44.18 9.32L44.18 9.32Q44.07 8.39 43.42 7.79L43.42 7.79L43.42 7.79Q42.77 7.20 41.80 7.20L41.80 7.20ZM48.62 7.38L48.62 7.38Q48.97 6.73 49.66 6.40L49.66 6.40L49.66 6.40Q50.34 6.06 51.32 6.06L51.32 6.06L51.32 7.36L51.32 7.36Q51.21 7.35 51.02 7.35L51.02 7.35L51.02 7.35Q49.92 7.35 49.30 8.00L49.30 8.00L49.30 8.00Q48.68 8.65 48.68 9.86L48.68 9.86L48.68 13.55L47.33 13.55L47.33 6.13L48.62 6.13L48.62 7.38Z"></path></g><!----><g data-v-423bf9ae="" id="8afb410a-57b0-4636-8df2-570c0aaa9372" transform="matrix(1.076554775238037,0,0,1.076554775238037,212.0659942626953,-231.47459411621094)" stroke="none" fill="#2240D6"><switch><g><path d="M-155 298.8c11.2 0 21.7-4.3 29.6-12.2 7.9-7.9 12.2-18.4 12.2-29.6 0-11.2-4.3-21.7-12.2-29.6-7.9-7.9-18.4-12.2-29.6-12.2s-21.7 4.3-29.6 12.2c-7.9 7.9-12.2 18.4-12.2 29.6 0 11.2 4.3 21.7 12.2 29.6 7.9 7.9 18.4 12.2 29.6 12.2zm2.4-7.1c-.8.1-1.6.1-2.4.1-1.1 0-2.2-.1-3.3-.2-3.6-5.6-6.3-11.6-7.9-17.9h17.7c.6 1.5 1.7 2.9 3 3.8-1.7 5-4.1 9.7-7.1 14.2zm9.5-2c1.9-3.5 3.4-7 4.6-10.7 2.9-.6 5.2-2.6 6.3-5.3h7.7c-4 7.3-10.7 13-18.6 16zm22.8-32.7c0 3.3-.5 6.5-1.3 9.6h-10.8c-.6-1.3-1.6-2.5-2.8-3.4.2-2.2.3-4.4.3-6.6 0-3.1-.2-6.2-.6-9.2h13.8c1 3 1.4 6.3 1.4 9.6zm-4.2-16.7h-12.2c-1.3-5.5-3.2-10.7-5.8-15.7 7.6 2.9 14 8.6 18 15.7zm-17.4 16.3c0 1.7-.1 3.4-.2 5.1-2.8.6-5.1 2.4-6.2 4.9h-19.3c-.4-3-.7-6.1-.7-9.1 0-1.9.1-3.8.3-5.7 2.6-.5 4.7-2.2 6-4.4h19.5c.4 3 .6 6.1.6 9.2zm-15.7-34.2c.9-.1 1.8-.1 2.6-.1 1 0 2 0 3 .1 3.6 5.6 6.3 11.6 7.9 17.9h-17.4c-.6-1.7-1.7-3.2-3.1-4.3 1.8-4.8 4.1-9.3 7-13.6zm-9.5 2c-1.7 3.2-3.2 6.6-4.4 10-3.1.6-5.6 2.9-6.6 5.8h-7.3c3.9-7.1 10.4-12.8 18.3-15.8zm-22.6 32.6c0-3.3.5-6.6 1.4-9.6h10.9c.6 1.1 1.5 2.1 2.5 2.9-.2 2.4-.4 4.8-.4 7.2 0 3.1.2 6.1.6 9.1h-13.6c-1-3.1-1.4-6.3-1.4-9.6zm16.2 16.6c1.3 5.4 3.2 10.7 5.8 15.7-7.6-3-13.9-8.6-17.8-15.7h12z"></path></g></switch></g><!----></svg>