<svg data-v-423bf9ae="" xmlns="http://www.w3.org/2000/svg" viewBox="0 0 379 90" class="iconLeft"><!----><!----><!----><g data-v-423bf9ae="" id="2558bd82-6de9-4d83-be0e-baa04dd8786d" fill="rgb(66, 65, 65)" transform="matrix(5.769230842590332,0,0,5.769230842590332,106.33447265625,3.1153855323791504)"><path d="M0.99 12.29L0.99 2.69L5.61 2.69L5.61 2.69Q7.15 2.69 7.95 3.50L7.95 3.50L7.95 3.50Q8.75 4.31 8.75 5.75L8.75 5.75L8.75 5.75Q8.75 7.20 7.92 8.03L7.92 8.03L7.92 8.03Q7.08 8.86 5.52 8.86L5.52 8.86L2.79 8.86L2.79 12.29L0.99 12.29ZM2.79 7.34L5.46 7.34L5.46 7.34Q6.16 7.34 6.55 6.92L6.55 6.92L6.55 6.92Q6.94 6.50 6.94 5.75L6.94 5.75L6.94 5.75Q6.94 5.03 6.57 4.62L6.57 4.62L6.57 4.62Q6.19 4.21 5.46 4.21L5.46 4.21L2.79 4.21L2.79 7.34ZM10.32 12.29L10.32 4.93L11.70 4.93L11.86 6.09L11.96 6.09L11.96 6.09Q12.46 4.76 13.61 4.76L13.61 4.76L13.61 4.76Q13.86 4.76 14.06 4.81L14.06 4.81L14.06 4.81Q14.25 4.86 14.31 4.89L14.31 4.89L14.31 6.47L13.78 6.47L13.78 6.47Q12.00 6.47 12.00 8.46L12.00 8.46L12.00 12.29L10.32 12.29ZM18.66 12.46L18.66 12.46Q16.84 12.46 15.94 11.52L15.94 11.52L15.94 11.52Q15.04 10.58 15.04 8.61L15.04 8.61L15.04 8.61Q15.04 6.64 15.94 5.70L15.94 5.70L15.94 5.70Q16.84 4.76 18.66 4.76L18.66 4.76L18.66 4.76Q20.48 4.76 21.39 5.70L21.39 5.70L21.39 5.70Q22.29 6.64 22.29 8.61L22.29 8.61L22.29 8.61Q22.29 10.58 21.39 11.52L21.39 11.52L21.39 11.52Q20.48 12.46 18.66 12.46L18.66 12.46ZM18.66 11.09L18.66 11.09Q19.66 11.09 20.10 10.51L20.10 10.51L20.10 10.51Q20.55 9.93 20.55 8.71L20.55 8.71L20.55 8.51L20.55 8.51Q20.55 7.29 20.10 6.71L20.10 6.71L20.10 6.71Q19.66 6.13 18.66 6.13L18.66 6.13L18.66 6.13Q17.65 6.13 17.21 6.71L17.21 6.71L17.21 6.71Q16.77 7.29 16.77 8.51L16.77 8.51L16.77 8.71L16.77 8.71Q16.77 9.93 17.21 10.51L17.21 10.51L17.21 10.51Q17.65 11.09 18.66 11.09L18.66 11.09ZM24.00 12.29L24.00 6.30L22.93 6.30L22.93 4.93L24.00 4.93L24.00 3.98L24.00 3.98Q24.00 3.15 24.42 2.60L24.42 2.60L24.42 2.60Q24.85 2.06 25.84 2.06L25.84 2.06L25.84 2.06Q26.14 2.06 26.47 2.12L26.47 2.12L26.47 2.12Q26.80 2.18 27.01 2.27L27.01 2.27L27.01 3.43L26.31 3.43L26.31 3.43Q25.68 3.43 25.68 4.06L25.68 4.06L25.68 4.93L27.01 4.93L27.01 6.30L25.68 6.30L25.68 12.29L24.00 12.29ZM28.18 3.78L28.18 2.17L29.86 2.17L29.86 3.78L28.18 3.78ZM28.18 12.29L28.18 4.93L29.86 4.93L29.86 12.29L28.18 12.29ZM31.81 12.29L31.81 2.17L33.49 2.17L33.49 12.29L31.81 12.29ZM38.50 12.46L38.50 12.46Q36.71 12.46 35.84 11.52L35.84 11.52L35.84 11.52Q34.97 10.58 34.97 8.61L34.97 8.61L34.97 8.61Q34.97 6.64 35.85 5.70L35.85 5.70L35.85 5.70Q36.72 4.76 38.50 4.76L38.50 4.76L38.50 4.76Q40.12 4.76 40.93 5.67L40.93 5.67L40.93 5.67Q41.73 6.58 41.73 8.51L41.73 8.51L41.73 9.02L36.68 9.02L36.68 9.02Q36.72 10.11 37.15 10.62L37.15 10.62L37.15 10.62Q37.58 11.13 38.51 11.13L38.51 11.13L38.51 11.13Q39.21 11.13 39.65 10.77L39.65 10.77L39.65 10.77Q40.08 10.42 40.08 9.72L40.08 9.72L41.73 9.72L41.73 9.72Q41.73 11.07 40.84 11.77L40.84 11.77L40.84 11.77Q39.94 12.46 38.50 12.46L38.50 12.46ZM36.71 7.83L39.98 7.83L39.98 7.83Q39.98 6.09 38.50 6.09L38.50 6.09L38.50 6.09Q37.66 6.09 37.23 6.52L37.23 6.52L37.23 6.52Q36.81 6.94 36.71 7.83L36.71 7.83ZM43.22 12.29L43.22 4.93L44.60 4.93L44.76 6.09L44.86 6.09L44.86 6.09Q45.36 4.76 46.51 4.76L46.51 4.76L46.51 4.76Q46.76 4.76 46.96 4.81L46.96 4.81L46.96 4.81Q47.15 4.86 47.21 4.89L47.21 4.89L47.21 6.47L46.68 6.47L46.68 6.47Q44.90 6.47 44.90 8.46L44.90 8.46L44.90 12.29L43.22 12.29Z"></path></g><!----><g data-v-423bf9ae="" id="4152a3f7-d0d7-471f-906a-2f6f50b022af" transform="matrix(1.141422152519226,0,0,1.141422152519226,-10.343881607055664,-11.46570110321045)" stroke="none" fill="#0000ff"><switch><g><path d="M89.141 35.617C86.25 22.852 77.844 14.405 68.699 10.364c11.371 10.018 21.846 29.405 8.814 47.069-5.406 7.331-16.217 10.228-20.746 8.184 0 0 7.002-1.487 11.357-5.295 8.469-8.017 11.299-20.932 4.52-32.673a25.839 25.839 0 0 0-3.357-4.575c-.018-.021-.033-.042-.051-.062-4.764-5.683-11.307-9.075-18.337-10.116-9.127-1.715-20.896.515-29.71 8.666C11.58 30.45 8.468 41.953 9.542 51.895c2.989-14.858 14.542-33.622 36.355-31.171 9.053 1.019 16.965 8.932 17.461 13.877 0 0-5.277-8.281-18.365-8.281-.24.004-.747.024-.761.024l-.167.01c-8.51.333-16.783 4.784-21.83 13.526a25.819 25.819 0 0 0-2.284 5.195l-.028.074c-2.539 6.968-2.205 14.33.407 20.938 3.079 8.763 10.896 17.841 22.361 21.397 12.502 3.878 24.02.82 32.092-5.079-14.363 4.837-36.389 4.216-45.173-15.899-3.645-8.35-.749-19.159 3.287-22.061 0 0-4.534 8.71 2.012 20.044 4.482 7.484 12.617 12.658 22.949 12.658.498 0 4.488-.311 5.926-.633l.08-.011c7.303-1.286 13.512-5.256 17.928-10.822 6.05-7.046 10.003-18.356 7.349-30.064z"></path></g></switch></g><!----></svg>